<?xml version="1.0" standalone="no"?>
<!DOCTYPE svg PUBLIC "-//W3C//DTD SVG 20010904//EN"
 "http://www.w3.org/TR/2001/REC-SVG-20010904/DTD/svg10.dtd">
<svg version="1.0" xmlns="http://www.w3.org/2000/svg"
 width="700.000000pt" height="700.000000pt" viewBox="0 0 700.000000 700.000000"
 preserveAspectRatio="xMidYMid meet">
<metadata>
Created by potrace 1.14, written by Peter Selinger 2001-2017
</metadata>
<g transform="translate(0.000000,700.000000) scale(0.100000,-0.100000)"
fill="#000000" stroke="none">
<path d="M760 6990 c-200 -20 -361 -97 -508 -242 -111 -110 -185 -241 -228
-404 -17 -66 -18 -191 -21 -2769 -3 -1792 0 -2735 7 -2803 20 -210 95 -369
244 -518 152 -152 310 -225 529 -245 73 -6 1057 -9 2802 -7 l2690 3 75 22
c174 49 288 114 400 227 119 120 196 265 232 437 11 52 13 557 13 2814 0 2631
-1 2753 -18 2828 -76 323 -305 556 -633 643 -66 17 -190 18 -2789 20 -1496 1
-2754 -2 -2795 -6z m4240 -1935 l0 -475 -1500 0 -1500 0 0 475 0 475 1500 0
1500 0 0 -475z m-2325 -901 c36 -14 45 -57 45 -224 l0 -162 -29 -29 -29 -29
-285 0 -284 0 -27 26 -26 27 0 174 c0 171 0 174 25 198 l24 25 285 0 c156 0
292 -3 301 -6z m780 -19 c25 -24 25 -27 25 -189 0 -176 -6 -207 -47 -225 -16
-7 -117 -11 -293 -11 -176 0 -277 4 -293 11 -41 18 -47 49 -47 225 0 162 0
165 25 189 l24 25 291 0 291 0 24 -25z m760 0 c25 -24 25 -27 25 -198 l0 -174
-26 -27 -27 -26 -284 0 -285 0 -29 29 -29 29 0 162 c0 163 9 210 42 223 7 3
143 6 301 6 l288 1 24 -25z m760 0 c25 -24 25 -27 25 -200 0 -173 0 -176 -25
-200 l-24 -25 -286 0 -287 0 -29 29 -29 29 0 162 c0 162 5 191 39 217 12 9 93
12 304 13 l288 0 24 -25z m-2280 -590 c25 -24 25 -27 25 -200 0 -173 0 -176
-25 -200 l-24 -25 -291 0 -291 0 -24 25 c-25 24 -25 27 -25 198 0 161 2 176
21 201 l20 26 295 0 295 0 24 -25z m764 -1 c19 -25 21 -40 21 -201 0 -171 0
-174 -25 -198 l-24 -25 -291 0 -291 0 -24 25 c-25 24 -25 27 -25 198 0 161 2
176 21 201 l20 26 299 0 299 0 20 -26z m760 0 c19 -25 21 -40 21 -201 0 -171
0 -174 -25 -198 l-24 -25 -291 0 -291 0 -24 25 c-25 24 -25 27 -25 200 0 173
0 176 25 200 l24 25 295 0 295 0 20 -26z m756 1 c25 -24 25 -27 25 -200 0
-173 0 -176 -25 -200 l-24 -25 -286 0 -287 0 -29 29 -29 29 0 162 c0 162 5
191 39 217 12 9 93 12 304 13 l288 0 24 -25z m-2280 -590 c25 -24 25 -27 25
-200 0 -173 0 -176 -25 -200 l-24 -25 -291 0 -291 0 -24 25 c-25 24 -25 27
-25 198 0 161 2 176 21 201 l20 26 295 0 295 0 24 -25z m764 -1 c19 -25 21
-40 21 -201 0 -171 0 -174 -25 -198 l-24 -25 -291 0 -291 0 -24 25 c-25 24
-25 27 -25 200 0 173 0 176 25 200 l24 25 295 0 295 0 20 -26z m760 0 c19 -25
21 -40 21 -201 0 -171 0 -174 -25 -198 l-24 -25 -291 0 -291 0 -24 25 c-25 24
-25 27 -25 200 0 173 0 176 25 200 l24 25 295 0 295 0 20 -26z m756 1 c25 -24
25 -27 25 -200 0 -173 0 -176 -25 -200 l-24 -25 -286 0 -287 0 -29 29 -29 29
0 162 c0 162 5 191 39 217 12 9 93 12 304 13 l288 0 24 -25z m-2280 -590 c25
-24 25 -27 25 -200 0 -173 0 -176 -25 -200 l-24 -25 -291 0 -291 0 -24 25
c-25 24 -25 27 -25 198 0 161 2 176 21 201 l20 26 295 0 295 0 24 -25z m760 0
c25 -24 25 -27 25 -200 0 -173 0 -176 -25 -200 l-24 -25 -291 0 -291 0 -24 25
c-25 24 -25 27 -25 200 0 173 0 176 25 200 l24 25 291 0 291 0 24 -25z m764
-1 c19 -25 21 -40 21 -201 0 -171 0 -174 -25 -198 l-24 -25 -291 0 -291 0 -24
25 c-25 24 -25 27 -25 200 0 173 0 176 25 200 l24 25 295 0 295 0 20 -26z
m756 1 c25 -24 25 -27 25 -200 0 -173 0 -176 -25 -200 l-24 -25 -286 0 -287 0
-29 29 -29 29 0 162 c0 162 5 191 39 217 12 9 93 12 304 13 l288 0 24 -25z
m-2300 -571 c36 -14 45 -57 45 -219 0 -157 -5 -186 -39 -212 -12 -9 -93 -12
-304 -13 l-288 0 -24 25 c-25 24 -25 27 -25 200 0 173 0 176 25 200 l24 25
285 0 c156 0 292 -3 301 -6z m780 -19 c25 -24 25 -27 25 -200 0 -173 0 -176
-25 -200 l-24 -25 -291 0 -291 0 -24 25 c-25 24 -25 27 -25 200 0 173 0 176
25 200 l24 25 291 0 291 0 24 -25z m764 -1 c19 -25 21 -40 21 -201 0 -171 0
-174 -25 -198 l-24 -25 -291 0 -291 0 -24 25 c-25 24 -25 27 -25 200 0 173 0
176 25 200 l24 25 295 0 295 0 20 -26z m734 15 c40 -18 47 -49 47 -214 0 -165
-7 -196 -47 -214 -16 -7 -118 -11 -297 -11 -261 0 -274 1 -300 21 l-26 20 0
184 0 184 26 20 c26 20 39 21 300 21 179 0 281 -4 297 -11z"/>
</g>
</svg>
